<?xml version="1.0" encoding="UTF-8"?>
<svg id="Calque_2" data-name="Calque 2" xmlns="http://www.w3.org/2000/svg" viewBox="0 0 212.59 250.89">
  <defs>
    <style>
      .cls-1 {
        fill: #fff;
        stroke: #f6f6f6;
        stroke-miterlimit: 10;
        stroke-width: 8px;
      }

      .cls-2 {
        fill: #0f1c2c;
      }

      .cls-2, .cls-3, .cls-4, .cls-5, .cls-6 {
        stroke-width: 0px;
      }

      .cls-3 {
        fill: none;
      }

      .cls-4 {
        fill: #99c2db;
      }

      .cls-5 {
        fill: #52b47d;
      }

      .cls-6 {
        fill: #48b592;
      }
    </style>
  </defs>
  <g id="Calque_1-2" data-name="Calque 1">
    <g>
      <path class="cls-1" d="M188.15,66.82c4.36-3.12,10.44-7.68,18.46-14.15-17.66-17.66-42.76-22.91-59.7-24.32,2.16-5.12,5.14-12.37,9.23-22.6C97.67-4.22,63.8,31.25,58.23,37.64,25.96,54.83,4,88.8,4,127.9c0,22.25,7.11,42.83,19.18,59.61-3.26,2.58-8.33,6.61-16.18,12.9,16.6,16.6,37.53,23.62,53.57,26.55-1.61,3.89-3.93,9.56-7.29,17.81,55.25,9.62,86.4-16.11,93.74-23.15,36.12-15.76,61.37-51.78,61.37-93.71,0-22.9-7.53-44.04-20.25-61.08Z"/>
      <g>
        <path class="cls-3" d="M180.7,152.32c-5.72-5.94-13.15-8.98-20.41-12.31-8.03-3.68-16.22-7.02-24.09-11-8.09-4.09-12.04-12.46-10.43-20.52,2.38-11.94,13.67-19.18,25.78-15.64,15.6,4.57,26.67,14.87,33.95,29.32.86,1.7,1.64,3.43,2.47,5.14.05.1.19.15.61.48,1.77-31.74-24.91-73.49-75.11-77.63-2.31-.2-4.6-.3-6.85-.31-2.25,0-4.54.11-6.85.31-50.2,4.15-76.88,45.89-75.11,77.63.43-.33.57-.37.61-.48.83-1.71,1.61-3.45,2.47-5.14,7.28-14.45,18.35-24.75,33.95-29.32,12.11-3.54,23.4,3.7,25.78,15.64,1.6,8.07-2.35,16.43-10.43,20.52-7.87,3.99-16.06,7.32-24.09,11-7.27,3.33-14.69,6.36-20.41,12.31-2.25,2.34-3.17,4.53-1.18,7.55,1.63,2.48,2.69,5.35,4.35,7.81,17.37,25.83,41.38,38.63,70.92,38.27,29.53.35,53.55-12.44,70.92-38.27,1.66-2.46,2.72-5.33,4.35-7.81,1.98-3.02,1.07-5.21-1.18-7.55ZM106.62,140.37c-4.28,0-7.75-1.92-7.75-4.28s3.47-4.28,7.75-4.28,7.75,1.92,7.75,4.28-3.47,4.28-7.75,4.28Z"/>
        <path class="cls-4" d="M188.15,66.82c4.36-3.12,10.44-7.68,18.46-14.15-17.66-17.66-42.76-22.91-59.7-24.32-.81,1.92-1.5,3.54-2.1,4.9,17.33,7.08,32.29,18.77,43.33,33.57Z"/>
        <path class="cls-5" d="M128.5,28.15h0s7.52-.7,18.42.21c2.16-5.12,5.14-12.37,9.23-22.6C97.67-4.22,63.8,31.25,58.23,37.64c14.31-7.62,30.63-11.94,47.97-11.94,7.66,0,15.12.85,22.3,2.45Z"/>
        <path class="cls-5" d="M128.49,28.14h0c5.63,1.26,11.08,2.98,16.32,5.12.59-1.36,1.29-2.98,2.1-4.9-10.9-.9-18.42-.21-18.42-.21Z"/>
        <path class="cls-4" d="M23.18,187.51c-3.26,2.58-8.33,6.61-16.18,12.9,16.6,16.6,37.53,23.62,53.57,26.55,1.28-3.1,2.11-5.07,2.64-6.32-16.03-7.44-29.81-18.92-40.03-33.13Z"/>
        <path class="cls-6" d="M83.62,227.59l1.66,1.35s-10.41.63-24.71-1.98c-1.61,3.89-3.93,9.56-7.29,17.81,55.25,9.62,86.4-16.11,93.74-23.15-12.51,5.46-26.31,8.49-40.83,8.49-7.76,0-15.31-.87-22.58-2.51Z"/>
        <path class="cls-6" d="M85.29,228.94l-1.66-1.35c-7.11-1.6-13.95-3.95-20.41-6.95-.53,1.25-1.35,3.22-2.64,6.32,14.3,2.61,24.71,1.98,24.71,1.98Z"/>
        <path class="cls-2" d="M208.4,127.9c0-22.9-7.53-44.04-20.25-61.08-6.06,4.34-8.81,5.9-8.81,5.9l-37.52-32.89c-.1.19-.14.26-.14.26l-84.28-1.47s.28-.35.82-.98C25.96,54.83,4,88.8,4,127.9c0,22.25,7.11,42.83,19.18,59.61,4.67-3.69,5.6-4.39,5.6-4.39l44.01,35.68,75.94,1.07s-.57.65-1.7,1.73c36.12-15.76,61.37-51.78,61.37-93.71ZM106.62,205.95c-29.53.35-53.55-12.44-70.92-38.27-1.66-2.46-2.72-5.33-4.35-7.81-1.98-3.02-1.07-5.21,1.18-7.55,5.72-5.94,13.15-8.98,20.41-12.31,8.03-3.68,16.22-7.02,24.09-11,8.09-4.09,12.04-12.46,10.43-20.52-2.38-11.94-13.67-19.18-25.78-15.64-15.6,4.57-26.67,14.87-33.95,29.32-.86,1.7-1.64,3.43-2.47,5.14-.05.1-.19.15-.61.48-1.77-31.74,24.91-73.49,75.11-77.63,2.31-.2,4.6-.3,6.85-.31,2.25,0,4.54.11,6.85.31,50.2,4.15,76.88,45.89,75.11,77.63-.43-.33-.57-.37-.61-.48-.83-1.71-1.61-3.45-2.47-5.14-7.28-14.45-18.35-24.75-33.95-29.32-12.11-3.54-23.4,3.7-25.78,15.64-1.6,8.07,2.35,16.43,10.43,20.52,7.87,3.99,16.06,7.32,24.09,11,7.27,3.33,14.69,6.36,20.41,12.31,2.25,2.34,3.17,4.53,1.18,7.55-1.63,2.48-2.69,5.35-4.35,7.81-17.37,25.83-41.38,38.63-70.92,38.27Z"/>
        <path class="cls-2" d="M144.81,33.25c-1.83,4.22-2.69,5.98-2.99,6.57l37.52,32.89s2.75-1.56,8.81-5.9c-11.04-14.79-26-26.49-43.33-33.57Z"/>
        <path class="cls-2" d="M141.68,40.09s.04-.07.14-.26l-13.32-11.68c-7.18-1.6-14.64-2.45-22.3-2.45-17.34,0-33.67,4.32-47.97,11.94-.54.63-.82.98-.82.98l84.28,1.47Z"/>
        <path class="cls-2" d="M128.5,28.15l13.32,11.68c.3-.6,1.16-2.36,2.99-6.57-5.24-2.14-10.69-3.86-16.32-5.11Z"/>
        <path class="cls-2" d="M63.21,220.64c1.17-2.76.89-1.95.89-1.95l8.69.12-44.01-35.68s-.93.69-5.6,4.39c10.22,14.21,24,25.68,40.03,33.13Z"/>
        <path class="cls-2" d="M148.73,219.88l-75.94-1.07,10.83,8.78c7.26,1.64,14.82,2.51,22.58,2.51,14.52,0,28.32-3.03,40.83-8.49,1.13-1.09,1.7-1.73,1.7-1.73Z"/>
        <path class="cls-2" d="M63.21,220.64c6.47,3,13.3,5.35,20.41,6.95l-10.83-8.78-8.69-.12s.28-.81-.89,1.95Z"/>
        <ellipse class="cls-2" cx="106.62" cy="136.09" rx="7.75" ry="4.28"/>
      </g>
    </g>
  </g>
</svg>